<svg xmlns="http://www.w3.org/2000/svg" viewBox="0 0 274.9 232.7"><defs><style>.cls-1{fill:#dd7045;}.cls-2{fill:#662e91;}</style></defs><g id="Layer_2" data-name="Layer 2"><g id="Layer_1-2" data-name="Layer 1"><path class="cls-1" d="M165.56,0h38.55a14.15,14.15,0,0,1,14.15,14.15V85.26a14.15,14.15,0,0,1-14.15,14.15H133a14.15,14.15,0,0,1-14.15-14.15V46.71A46.71,46.71,0,0,1,165.56,0Z" transform="translate(337.12 99.41) rotate(-180)"/><path class="cls-2" d="M12.58,134.64a43.1,43.1,0,0,1-.77-5.5c-.06-30.52.12-61-.26-91.57C11.49,32.18,14.33,31,21.66,31c22.23.08,44.49-.07,66.7-.64,8.21-.21,10.56,1.76,11,7,2.63,35.66-15.53,64.72-58.92,85.9-7.48,3.65-15.11,7.16-22.75,10.65C16.64,134.37,15.12,134.3,12.58,134.64Z"/><path class="cls-2" d="M272.6,230.5c-2.27.73-5.39.19-7.41.2q-6.49,0-13,.1c-8.66.09-17.31.2-26,.25-16.71.1-33.44,0-50.13-.92-14.25-.78-25.84-11.33-31.55-24.81-6.72-15.86-13-32.14-17.06-48.92-1.73-7.15-4.28-28.27-15.76-25.68a11,11,0,0,0-6,4.27c-3.54,4.62-4.63,10.62-5.46,16.38a328.42,328.42,0,0,0-2.67,68.29c.3,4.49.14,10-3.84,12.14a11.66,11.66,0,0,1-5.51.9l-80.33-.1c-2.5,0-5.37-.19-6.88-2.17-1.2-1.58-1.11-3.75-.91-5.72A122.49,122.49,0,0,1,88.05,119.25c23.92-6.94,47.92-10.06,72.25-3.38a90.42,90.42,0,0,1,30,14.66c9.37,7,16,15.87,23.52,24.63,18.81,22,37.44,44.12,56.12,66.2,1.42,1.68,6.89,5.82,4.29,8.24A4.39,4.39,0,0,1,272.6,230.5Z"/></g></g></svg>