<svg xmlns="http://www.w3.org/2000/svg" viewBox="0 0 1290.83 165.32"><defs><style>.cls-1{fill:#dd7045;}.cls-2{fill:#662e91;}</style></defs><g id="Layer_2" data-name="Layer 2"><g id="Layer_1-2" data-name="Layer 1"><path class="cls-1" d="M131.15,0h9.77a14.15,14.15,0,0,1,14.15,14.15V56.47a14.15,14.15,0,0,1-14.15,14.15H98.59A14.15,14.15,0,0,1,84.44,56.47V46.71A46.71,46.71,0,0,1,131.15,0Z" transform="translate(239.51 70.63) rotate(-180)"/><path class="cls-2" d="M8.94,95.65a30.42,30.42,0,0,1-.55-3.9c0-21.69.09-43.37-.18-65.06-.05-3.83,2-4.68,7.18-4.66,15.79,0,31.6-.05,47.39-.45,5.83-.15,7.5,1.25,7.77,5,1.88,25.34-11,46-41.85,61C23.38,90.17,18,92.66,12.53,95.14A18,18,0,0,1,8.94,95.65Z"/><path class="cls-2" d="M193.67,163.76c-1.61.52-3.83.13-5.26.14l-9.23.07c-6.15.06-12.3.14-18.45.18-11.87.07-23.75,0-35.61-.65-10.13-.56-18.36-8.05-22.42-17.63C97.93,134.6,93.46,123,90.58,111.12,89.36,106,87.54,91,79.39,92.87a7.78,7.78,0,0,0-4.28,3c-2.51,3.29-3.29,7.55-3.88,11.64a233,233,0,0,0-1.89,48.52c.2,3.19.1,7.13-2.73,8.63a8.36,8.36,0,0,1-3.92.63l-57.07-.07c-1.78,0-3.82-.13-4.89-1.54-.85-1.12-.79-2.66-.65-4.06A87,87,0,0,1,62.55,84.72c17-4.93,34.05-7.15,51.34-2.4a64.24,64.24,0,0,1,21.3,10.42c6.65,5,11.38,11.27,16.71,17.49,13.36,15.62,26.59,31.35,39.87,47,1,1.19,4.89,4.13,3,5.85A3,3,0,0,1,193.67,163.76Z"/><path class="cls-2" d="M315.29,143l-34-49.69-15.36,16.15V143H244.6V31.42h21.32V83.78l47.81-52.36h24.92L295.23,77.51l45,65.52Z"/><path class="cls-2" d="M412.32,143,396.8,89.26,381.28,143H359.81L332.06,62.15h21.17L371.72,120l16-57.84h18.18l16,57.84,18.5-57.84h21.16L433.8,143Z"/><path class="cls-2" d="M468.43,39.57c0-6,4.24-10.5,11.76-10.5s11.6,4.55,11.6,10.5-4.08,10.51-11.6,10.51S468.43,45.53,468.43,39.57ZM470,143V62.15h20.22V143Z"/><path class="cls-2" d="M501.19,143V129.71l41.54-53.14h-40V62.15h63.49V75.47l-41.39,53.14h42.95V143Z"/><path class="cls-2" d="M575.8,102.59c0-24.93,14.11-42,40.13-42,26.18,0,40.29,17.24,40.29,41.07,0,1.72-.16,3.29-.32,5.17H596c.63,16.46,8.47,24,20.85,24,10,0,16.62-5,19-13.32h18.65C651,134.1,638.66,144.6,616.87,144.6,590.54,144.6,575.8,128.14,575.8,102.59ZM596,93.65h40c-1.73-12.85-8.94-19.28-20.07-19.28S597.75,80.8,596,93.65Z"/><path class="cls-2" d="M667.81,143V62.15h19.28v18c4.24-14.26,11.29-19.12,22.58-19.12a35.54,35.54,0,0,1,7.36,1.1V79.86l-8.3-.16C696.34,79.7,688,89,688,105.41V143Z"/><path class="cls-2" d="M720.64,120.14c0-12.38,7.37-22.25,27.74-23.82l16.46-1.41c8.15-.79,10.51-3,10.51-7.21,0-8-4.86-12.7-14.9-12.7-9.4,0-14.57,4.08-15.36,12.7H725c0-16.46,10.34-27.12,35.27-27.12s35.27,10.66,35.27,27.12v34.64c0,11,.94,18,2.5,20.69H779.73c-2.35-3-3.44-6.27-3.44-12.54-4.55,9.25-12.7,14.11-26.5,14.11C730.83,144.6,720.64,135,720.64,120.14Zm54.71-10.65v-5.65c-1.42,1.73-5.18,2.67-10.66,3.14l-9.57.78c-10.18.94-14.26,5.17-14.26,11,0,7.21,4.54,12.07,14.89,12.07C768.29,130.8,775.35,121.24,775.35,109.49Z"/><path class="cls-2" d="M861.87,143V93.5c0-11-3.92-16.46-13.8-16.46-10.66,0-17.55,7.68-17.55,20.85V143H810.3V62.15h19.28V75.31c4.39-8.62,11.6-14.73,24.76-14.73,18.5,0,27.75,9.4,27.75,29V143Z"/><path class="cls-2" d="M893.69,120.14c0-12.38,7.36-22.25,27.74-23.82l16.46-1.41c8.15-.79,10.5-3,10.5-7.21,0-8-4.86-12.7-14.89-12.7-9.4,0-14.58,4.08-15.36,12.7H898.07c0-16.46,10.35-27.12,35.27-27.12s35.27,10.66,35.27,27.12v34.64c0,11,.94,18,2.51,20.69H952.78c-2.35-3-3.45-6.27-3.45-12.54-4.54,9.25-12.69,14.11-26.49,14.11C903.87,144.6,893.69,135,893.69,120.14Zm54.7-10.65v-5.65c-1.41,1.73-5.17,2.67-10.66,3.14l-9.56.78c-10.19.94-14.26,5.17-14.26,11,0,7.21,4.54,12.07,14.89,12.07C941.34,130.8,948.39,121.24,948.39,109.49Z"/><path class="cls-2" d="M997.73,106c0-9.56,4.82-16.66,12-21.37a44.1,44.1,0,0,1,18.28-6.4,52,52,0,0,1,7.07-.46,53.83,53.83,0,0,1,13,1.58c10.79,2.75,19.93,9,23.13,18.78l.25.74h-15.75l-.18-.29a16.51,16.51,0,0,0-7.77-6.25A33.34,33.34,0,0,0,1035.1,90c-6.5.07-12.44,1.55-16.56,4.5a14.22,14.22,0,0,0,0,23.06c4.12,3,10.06,4.43,16.56,4.47a33.54,33.54,0,0,0,12.55-2.29,16.4,16.4,0,0,0,7.77-6.08l.18-.28h15.82l-.25.74c-3.27,9.7-12.37,15.89-23.13,18.6a54.68,54.68,0,0,1-12.87,1.54,56.82,56.82,0,0,1-7.38-.49,43.55,43.55,0,0,1-18.32-6.5C1002.44,122.48,997.73,115.41,997.73,106Z"/><path class="cls-2" d="M1102,88.77c14.06,0,25.1,8.89,25.1,22.71s-11,22.64-25.1,22.64c-13.82,0-25.25-8.65-25.25-22.4C1076.76,97.59,1087.59,88.77,1102,88.77Zm0,33.36c7.06,0,12.55-3.45,12.55-10.65s-5.42-10.73-12.55-10.73-12.7,3.38-12.7,10.73S1094.87,122.13,1102,122.13Z"/><path class="cls-2" d="M1133.44,78.85h13.67V133h-13.67Z"/><path class="cls-2" d="M1155.55,78.85h13.67V133h-13.67Z"/><path class="cls-2" d="M1191.94,133.87c-11.78-.07-17.62-6.78-17.62-13.57,0-7,6.15-14,18.46-14h15.71c-2.6-4.61-7.27-6-12.16-6a39.36,39.36,0,0,0-9.56,1.4V90.87a53.7,53.7,0,0,1,12.83-1.68c12.3,0,24,5.31,24,23v21H1209.9v-3.66c-1.55,2-9.63,4.36-17.79,4.36ZM1209.79,115h-14.87c-5.34,0-8.15,2.25-8.15,4.57,0,2.53,3.34,5.16,10.37,5.16h.63C1203.78,124.55,1209.79,122,1209.79,115Z"/><path class="cls-2" d="M1245,125.33v7.84h-13.68V78.85H1245v20c3.34-6,11.49-9.63,20.49-9.63,14.06,0,25.35,9.17,25.35,23,0,15.15-13,21.9-25.52,21.9C1256.83,134.08,1248.68,131,1245,125.33Zm33.29-13.15c0-7.21-8-11-15.12-11s-14.94,3.66-14.94,11,7.84,10.65,14.94,10.65S1278.28,119.35,1278.28,112.18Z"/></g></g></svg>